<mxfile host="app.diagrams.net" modified="2021-09-08T04:55:21.141Z" agent="5.0 (Windows NT 6.1; Win64; x64) AppleWebKit/537.36 (KHTML, like Gecko) Chrome/93.0.4577.63 Safari/537.36" etag="6cCiTNTr8mhYIRDjnAmj" version="15.0.4" type="github">
  <diagram id="nnRKH7eHPKdh5A8vZnEy" name="第 1 页">
    <mxGraphModel dx="1102" dy="582" grid="1" gridSize="10" guides="1" tooltips="1" connect="1" arrows="1" fold="1" page="1" pageScale="1" pageWidth="827" pageHeight="1169" math="0" shadow="0">
      <root>
        <mxCell id="0" />
        <mxCell id="1" parent="0" />
        <mxCell id="9LLnaAkUbdrVN9nkYzUv-4" value="更新" style="rounded=0;orthogonalLoop=1;jettySize=auto;html=1;exitX=0.5;exitY=1;exitDx=0;exitDy=0;fontSize=16;" edge="1" parent="1" source="9LLnaAkUbdrVN9nkYzUv-1" target="9LLnaAkUbdrVN9nkYzUv-2">
          <mxGeometry relative="1" as="geometry" />
        </mxCell>
        <mxCell id="9LLnaAkUbdrVN9nkYzUv-5" value="更新" style="rounded=0;orthogonalLoop=1;jettySize=auto;html=1;exitX=0.5;exitY=1;exitDx=0;exitDy=0;fontSize=16;" edge="1" parent="1" source="9LLnaAkUbdrVN9nkYzUv-1" target="9LLnaAkUbdrVN9nkYzUv-3">
          <mxGeometry relative="1" as="geometry" />
        </mxCell>
        <mxCell id="9LLnaAkUbdrVN9nkYzUv-1" value="客户端" style="rounded=1;whiteSpace=wrap;html=1;fontSize=16;fillColor=#ffcc99;strokeColor=#36393d;" vertex="1" parent="1">
          <mxGeometry x="340" y="190" width="120" height="60" as="geometry" />
        </mxCell>
        <mxCell id="9LLnaAkUbdrVN9nkYzUv-2" value="缓存" style="rounded=1;whiteSpace=wrap;html=1;fontSize=16;" vertex="1" parent="1">
          <mxGeometry x="220" y="310" width="120" height="60" as="geometry" />
        </mxCell>
        <mxCell id="9LLnaAkUbdrVN9nkYzUv-3" value="数据库" style="rounded=1;whiteSpace=wrap;html=1;fontSize=16;fillColor=#cce5ff;strokeColor=#36393d;" vertex="1" parent="1">
          <mxGeometry x="480" y="310" width="120" height="60" as="geometry" />
        </mxCell>
      </root>
    </mxGraphModel>
  </diagram>
</mxfile>
